<svg width="12" height="16" viewBox="0 0 12 16" fill="none" xmlns="http://www.w3.org/2000/svg">
<path fill-rule="evenodd" clip-rule="evenodd" d="M5.99615 10.2543C6.54606 10.2543 6.99597 9.80439 6.99597 9.25453C6.99597 8.70457 6.54606 8.2547 5.99615 8.2547C5.44292 8.2547 4.99633 8.70457 4.99633 9.25453C4.99633 9.8044 5.44293 10.2543 5.99615 10.2543Z" fill="white"/>
<path fill-rule="evenodd" clip-rule="evenodd" d="M8.99814 5.25744H2.99866C2.81459 5.25744 2.66536 5.10836 2.66536 4.92414C2.66536 4.73991 2.8146 4.59084 2.99866 4.59084H8.99814C9.18221 4.59084 9.33145 4.73992 9.33145 4.92414C9.33145 5.10837 9.18221 5.25744 8.99814 5.25744ZM3.78017 7.40072C3.7735 7.30405 3.80684 7.20738 3.87682 7.1374C3.94682 7.06742 4.04347 7.02742 4.14348 7.04073L5.11672 7.12739L5.74333 6.37745C5.80666 6.3008 5.89997 6.25751 5.99996 6.25751C6.09663 6.25751 6.18995 6.3008 6.25327 6.37745L6.87988 7.12739L7.85312 7.04073C7.95313 7.03076 8.04978 7.06742 8.11978 7.1374C8.18976 7.20738 8.22644 7.30405 8.21643 7.40072L8.12643 8.37394L8.8797 9.00059C8.95304 9.0639 8.99969 9.15723 8.99969 9.25724C8.99969 9.35721 8.95304 9.45054 8.8797 9.51385L8.12643 10.1405L8.21643 11.1137C8.2231 11.2103 8.18976 11.307 8.11978 11.377C8.04978 11.447 7.95313 11.4837 7.85312 11.4737L6.87988 11.387L6.25327 12.1369C6.18994 12.2136 6.09663 12.257 5.99996 12.257C5.89997 12.257 5.80666 12.2136 5.74333 12.1369L5.11672 11.387L4.14348 11.4737C4.04681 11.4837 3.94682 11.447 3.87682 11.377C3.80684 11.307 3.7735 11.2103 3.78017 11.1137L3.87017 10.1405L3.12023 9.51385C3.04356 9.45054 3.00023 9.35721 3.00023 9.25724C3.00023 9.15723 3.04356 9.0639 3.12023 9.00059L3.87017 8.37394L3.78017 7.40072ZM8.99814 13.9234H2.99866C2.81459 13.9234 2.66536 13.7743 2.66536 13.59C2.66536 13.4058 2.8146 13.2567 2.99866 13.2567H8.99814C9.18221 13.2567 9.33145 13.4058 9.33145 13.59C9.33145 13.7743 9.18221 13.9234 8.99814 13.9234ZM2.99866 2.47838H4.99849C5.18256 2.47838 5.3318 2.62746 5.3318 2.81168C5.3318 2.99591 5.18256 3.14498 4.99849 3.14498H2.99866C2.81459 3.14498 2.66536 2.9959 2.66536 2.81168C2.66536 2.62745 2.8146 2.47838 2.99866 2.47838ZM11.3329 3.81095H8.84646C8.29507 3.81095 7.84655 3.36242 7.84655 2.81104V0.334689C7.84655 0.218729 7.86868 0.106929 7.90614 0.00138855H1.33371C0.780431 0.00138855 0.333801 0.448009 0.333801 1.0013V15.0001C0.333801 15.55 0.780441 16 1.33371 16H10.6662C11.2162 16 11.6662 15.55 11.6662 15.0001V3.75106C11.5607 3.78873 11.449 3.81095 11.3329 3.81095H11.3329Z" fill="white"/>
<path fill-rule="evenodd" clip-rule="evenodd" d="M8.84585 3.14885H11.3331C11.4665 3.14885 11.5865 3.06874 11.6399 2.94191C11.6899 2.81841 11.6632 2.67491 11.5665 2.58145C10.943 1.95396 9.80944 0.822456 9.08257 0.098148C8.98588 0.00138195 8.84252 -0.0253456 8.71915 0.0247248C8.59579 0.0781398 8.51243 0.198289 8.51243 0.335151V2.81507C8.51243 2.99866 8.66247 3.14884 8.84586 3.14884L8.84585 3.14885Z" fill="white"/>
</svg>
