<svg width="16" height="16" viewBox="0 0 16 16" fill="none" xmlns="http://www.w3.org/2000/svg">
<path fill-rule="evenodd" clip-rule="evenodd" d="M14.9041 4.12054H1.09589V2.84932C1.09589 2.19179 1.64384 1.64384 2.30137 1.64384H13.6986C14.3562 1.64384 14.9041 2.19179 14.9041 2.84932V4.12054ZM12.1644 12.7123H7.49589C7.18904 12.7123 6.94794 12.4712 6.94794 12.1644C6.94794 11.8575 7.18904 11.6164 7.49589 11.6164H12.1644C12.4712 11.6164 12.7123 11.8575 12.7123 12.1644C12.7123 12.4712 12.4712 12.7123 12.1644 12.7123ZM6.53151 9.9726L4.12055 12.1644C3.90137 12.3616 3.55069 12.3397 3.35343 12.0986C3.15617 11.8795 3.17809 11.5507 3.39727 11.3534L5.36987 9.55616L3.39727 7.7589C3.17809 7.53972 3.17809 7.21097 3.37535 6.99179C3.57261 6.7726 3.90138 6.7726 4.12055 6.94795L6.53151 9.13972C6.75069 9.33698 6.77261 9.68768 6.57535 9.90685C6.55343 9.92877 6.55343 9.95068 6.53151 9.9726ZM13.6986 0.547945H2.30137C1.03014 0.547945 0 1.57808 0 2.84931V13.1507C0 14.4219 1.03014 15.4521 2.30137 15.4521H13.6986C14.9699 15.4521 16 14.4219 16 13.1507V2.84931C16 1.57808 14.9699 0.547945 13.6986 0.547945Z" fill="white"/>
</svg>
