<svg width="16" height="16" viewBox="0 0 16 16" fill="none" xmlns="http://www.w3.org/2000/svg">
<path fill-rule="evenodd" clip-rule="evenodd" d="M7.72414 0.55171H3.58621C2.78155 0.55171 2.0096 0.87143 1.44051 1.44049C0.87141 2.00959 0.55172 2.7815 0.55172 3.58619V7.72412H1.6703C1.80774 6.48359 2.86095 5.51722 4.13793 5.51722C5.4149 5.51722 6.46809 6.48359 6.60555 7.72412H7.72413V6.06895C7.72413 5.91673 7.84777 5.79309 7.99999 5.79309C9.06563 5.79309 9.93102 4.9277 9.93102 3.86206C9.93102 2.79641 9.06563 1.93103 7.99999 1.93103C7.84777 1.93103 7.72413 1.80738 7.72413 1.65517L7.72414 0.55171ZM15.4483 8.27585H14.3297C14.1923 9.51637 13.139 10.4827 11.8621 10.4827C10.5851 10.4827 9.53189 9.51637 9.39443 8.27585H8.27585V9.93102C8.27585 10.0832 8.1522 10.2069 7.99999 10.2069C6.93434 10.2069 6.06895 11.0723 6.06895 12.1379C6.06895 13.2036 6.93434 14.069 7.99999 14.069C8.1522 14.069 8.27585 14.1926 8.27585 14.3448V15.4483H12.4138C13.2184 15.4483 13.9904 15.1286 14.5595 14.5595C15.1286 13.9904 15.4483 13.2185 15.4483 12.4138L15.4483 8.27585ZM0 3.5862V12.4138C0 13.365 0.37794 14.277 1.05048 14.9495C1.72301 15.622 2.63509 16 3.5862 16H12.4138C13.365 16 14.277 15.6221 14.9495 14.9495C15.6221 14.277 16 13.3649 16 12.4138V3.5862C16 2.63497 15.6221 1.72301 14.9495 1.05048C14.277 0.37794 13.3649 0 12.4138 0H3.5862C2.63497 0 1.72301 0.37794 1.05048 1.05048C0.37794 1.72302 0 2.6351 0 3.5862Z" fill="white"/>
</svg>
