<svg width="14" height="16" viewBox="0 0 14 16" fill="none" xmlns="http://www.w3.org/2000/svg">
<path fill-rule="evenodd" clip-rule="evenodd" d="M10.0974 0.123793V3.3597H13.327L10.0974 0.123793Z" fill="white"/>
<path fill-rule="evenodd" clip-rule="evenodd" d="M6.43401 7.92585C5.85102 7.92585 5.64419 8.52198 5.64419 9.03244C5.64419 9.54669 5.88985 10.1001 6.42914 10.1001C6.97473 10.1001 7.21898 9.54678 7.21898 8.99835C7.21893 8.48183 6.97332 7.92585 6.43401 7.92585Z" fill="white"/>
<path fill-rule="evenodd" clip-rule="evenodd" d="M11.7356 10.6927C11.3295 10.8492 10.9017 10.9507 10.4643 10.9507C9.87278 10.9507 9.41175 10.785 9.05476 10.4442C8.71195 10.1132 8.51535 9.59813 8.51535 9.03092C8.52117 7.85936 9.34164 7.07227 10.5569 7.07227C10.952 7.07227 11.3426 7.15829 11.6904 7.34617L11.4402 8.19223C11.1608 8.0476 10.8652 7.95215 10.5472 7.95215C9.88391 7.95215 9.4879 8.34819 9.4879 9.01148C9.4879 9.67782 9.86386 10.0756 10.4936 10.0756C10.6341 10.0756 10.734 10.0647 10.7972 10.0543V9.53187H10.1292V8.6666H11.7355L11.7356 10.6927ZM6.40748 10.9702C5.3834 10.9702 4.66815 10.1767 4.66815 9.04075C4.66815 7.87026 5.40343 7.05279 6.45623 7.05279C7.48031 7.05279 8.19552 7.8442 8.19552 8.97735C8.19552 10.354 7.29746 10.9702 6.40748 10.9702V10.9702ZM4.61662 10.9166H2.2643V7.10641H3.21246V10.0367H4.61666V10.9166H4.61662ZM13.4367 4.64217H10.0973C9.38628 4.64217 8.80988 4.06582 8.80988 3.35481V0H1.11757C0.81135 0 0.56311 0.24824 0.56311 0.55445V15.4455C0.56311 15.7518 0.81135 16 1.11757 16H12.8824C13.1886 16 13.4368 15.752 13.4369 15.4457C13.4371 13.1673 13.4367 4.64218 13.4367 4.64218V4.64217Z" fill="white"/>
</svg>
