<svg width="16" height="16" viewBox="0 0 16 16" fill="none" xmlns="http://www.w3.org/2000/svg">
<path fill-rule="evenodd" clip-rule="evenodd" d="M8.0003 11.5941C6.01545 11.5941 4.40641 9.98503 4.40641 8.00018C4.40641 6.01533 6.01545 4.40629 8.0003 4.40629C9.98515 4.40629 11.5942 6.01533 11.5942 8.00018C11.592 9.9841 9.98422 11.5918 8.0003 11.5941ZM15.6965 6.59075C15.501 6.38667 15.2339 6.26645 14.9515 6.25542L13.8299 6.20917C13.7168 5.84172 13.5688 5.48593 13.388 5.14663L14.1493 4.31941C14.548 3.88818 14.5342 3.21877 14.118 2.80435L13.1971 1.88275C12.7826 1.46656 12.1132 1.45275 11.682 1.8515L10.8523 2.61465C10.5133 2.43563 10.1582 2.28914 9.79161 2.17713L9.74505 1.05021C9.72172 0.463153 9.23878 -0.000606941 8.65126 -0.000136941H7.34934C6.76229 -0.000626941 6.27953 0.462403 6.25555 1.04896L6.20899 2.17588C5.84241 2.28789 5.48727 2.43438 5.14832 2.6134L4.3186 1.85118C3.887 1.45341 3.21838 1.4672 2.80354 1.88243L1.88288 2.8034C1.46669 3.21782 1.45288 3.88722 1.85163 4.31846L2.6126 5.14568C2.4318 5.48498 2.28383 5.84077 2.17071 6.20822L1.0491 6.25447C0.462172 6.27847 -0.000998384 6.76178 1.61621e-06 7.3492V8.65112C-0.000488384 9.23818 0.462542 9.72093 1.0491 9.74491L2.16571 9.79116C2.2785 10.1609 2.42637 10.519 2.60729 10.8606L1.85132 11.6819C1.45355 12.1135 1.46734 12.7821 1.88257 13.1969L2.80323 14.1176C3.21806 14.5328 3.88668 14.5466 4.31829 14.1488L5.13707 13.3951C5.47934 13.5774 5.83842 13.7264 6.2093 13.8398L6.25524 14.951C6.27923 15.5376 6.76198 16.0006 7.34903 16.0001H8.65095C9.238 16.0006 9.72076 15.5376 9.74474 14.951L9.79068 13.8398C10.1616 13.7264 10.5206 13.5774 10.8629 13.395L11.6817 14.1488C12.1129 14.5476 12.7823 14.5338 13.1968 14.1176L14.1174 13.1969C14.5326 12.7821 14.5464 12.1135 14.1487 11.6819L13.3927 10.8606C13.5736 10.519 13.7215 10.1609 13.8343 9.79115L14.9509 9.7449C15.5375 9.72092 16.0005 9.23816 16 8.65111V7.34919C16.0008 7.06663 15.892 6.79476 15.6965 6.59072V6.59075Z" fill="white"/>
</svg>
