<svg width="16" height="16" viewBox="0 0 16 16" fill="none" xmlns="http://www.w3.org/2000/svg">
<path d="M0.888916 3.50111C0.888916 2.05841 2.05845 0.888885 3.50114 0.888885C4.94383 0.888885 6.11336 2.05841 6.11336 3.50111C6.11336 4.9438 4.94383 6.11333 3.50114 6.11333C2.05845 6.11333 0.888916 4.9438 0.888916 3.50111Z" fill="white" stroke="white"/>
<path d="M9.88892 3.50111C9.88892 2.05841 11.0584 0.888885 12.5011 0.888885C13.9438 0.888885 15.1134 2.05841 15.1134 3.50111C15.1134 4.9438 13.9438 6.11333 12.5011 6.11333C11.0584 6.11333 9.88892 4.9438 9.88892 3.50111Z" fill="white" stroke="white"/>
<path d="M0.888916 12.5011C0.888916 11.0584 2.05845 9.88889 3.50114 9.88889C4.94383 9.88889 6.11336 11.0584 6.11336 12.5011C6.11336 13.9438 4.94383 15.1133 3.50114 15.1133C2.05845 15.1133 0.888916 13.9438 0.888916 12.5011Z" fill="white" stroke="white"/>
<path d="M9.88892 12.5011C9.88892 11.0584 11.0584 9.88889 12.5011 9.88889C13.9438 9.88889 15.1134 11.0584 15.1134 12.5011C15.1134 13.9438 13.9438 15.1133 12.5011 15.1133C11.0584 15.1133 9.88892 13.9438 9.88892 12.5011Z" fill="white" stroke="white"/>
<path d="M5.88892 3.88889H10.3378" stroke="white"/>
<path d="M5.88892 12.8889H10.3378" stroke="white"/>
<path d="M3.88892 5.88889V10.3378" stroke="white"/>
<path d="M12.8889 5.88889V10.3378" stroke="white"/>
</svg>
