<svg width="16" height="16" viewBox="0 0 16 16" fill="none" xmlns="http://www.w3.org/2000/svg">
<path fill-rule="evenodd" clip-rule="evenodd" d="M2 2.00001H14V8.66335H2V2.00001Z" fill="white"/>
<path fill-rule="evenodd" clip-rule="evenodd" d="M1.66667 9.33334C1.48267 9.33334 1.33334 9.18334 1.33334 9.00001V1.66668C1.33334 1.48268 1.48267 1.33335 1.66667 1.33335H14.3333C14.5167 1.33335 14.6667 1.48268 14.6667 1.66668V9.00001C14.6667 9.18334 14.5167 9.33334 14.3333 9.33334H1.66667ZM14 11.3333C15.1027 11.3333 16 10.436 16 9.33334V2.00001C16 0.897338 15.1027 7.62939e-06 14 7.62939e-06H2C0.89733 7.62939e-06 0 0.897338 0 2.00001V9.33334C0 10.436 0.89733 11.3333 2 11.3333H6.66667V12.6667H4C3.264 12.6667 2.66667 13.264 2.66667 14H0.66667C0.48267 14 0.33334 14.15 0.33334 14.3333C0.33334 14.5167 0.48267 14.6667 0.66667 14.6667H2.66667C2.66667 15.4027 3.264 16 4 16H12C12.736 16 13.3333 15.4027 13.3333 14.6667H15.3333C15.5167 14.6667 15.6667 14.5167 15.6667 14.3333C15.6667 14.15 15.5167 14 15.3333 14H13.3333C13.3333 13.264 12.736 12.6667 12 12.6667H9.33333V11.3333H14Z" fill="white"/>
</svg>
