<svg width="16" height="16" viewBox="0 0 16 16" fill="none" xmlns="http://www.w3.org/2000/svg">
<path fill-rule="evenodd" clip-rule="evenodd" d="M4.38736 6.20056L3.01383 5.40993C2.63879 5.83292 2.00506 5.94898 1.49568 5.65577C0.914168 5.32105 0.714917 4.57973 1.05066 3.99999C1.3864 3.42025 2.12995 3.22162 2.71146 3.55633C3.22085 3.84953 3.43688 4.45474 3.25699 4.99004L4.63052 5.78066L7.75664 3.98124V2.39999C7.20169 2.28768 6.784 1.79853 6.784 1.21212C6.784 0.542689 7.32833 0 7.99978 0C8.67125 0 9.21556 0.542689 9.21556 1.21212C9.21556 1.79854 8.79789 2.28769 8.24294 2.39999V3.98124L11.3691 5.78066L12.7426 4.99004C12.5627 4.45473 12.7787 3.84953 13.2881 3.55633C13.8696 3.22162 14.6132 3.42025 14.9489 3.99999C15.2847 4.57974 15.0854 5.32106 14.5039 5.65577C13.9945 5.94898 13.3608 5.83292 12.9858 5.40993L11.6122 6.20056V9.79941L12.9858 10.59C13.3608 10.167 13.9945 10.051 14.5039 10.3442C15.0854 10.6789 15.2847 11.4202 14.9489 12C14.6132 12.5797 13.8696 12.7784 13.2881 12.4436C12.7787 12.1504 12.5627 11.5452 12.7426 11.0099L11.3691 10.2193L8.24294 12.0187V13.6C8.79789 13.7123 9.21556 14.2014 9.21556 14.7878C9.21556 15.4573 8.67125 16 7.99978 16C7.32833 16 6.784 15.4573 6.784 14.7878C6.784 14.2014 7.20169 13.7123 7.75664 13.6V12.0187L4.63052 10.2193L3.25699 11.0099C3.43688 11.5452 3.22085 12.1504 2.71146 12.4436C2.12995 12.7784 1.38641 12.5797 1.05066 12C0.714917 11.4202 0.914168 10.6789 1.49568 10.3442C2.00507 10.051 2.63879 10.167 3.01383 10.59L4.38736 9.79941V6.20056Z" fill="white"/>
</svg>
