<svg width="16" height="14" viewBox="0 0 16 14" fill="none" xmlns="http://www.w3.org/2000/svg">
<path fill-rule="evenodd" clip-rule="evenodd" d="M11.8 7.60003C12.1314 7.60003 12.4 7.86852 12.4 8.19988C12.4 8.53136 12.1314 8.79998 11.8 8.79998C11.4686 8.79998 11.2 8.53136 11.2 8.19988C11.2 7.86852 11.4686 7.60003 11.8 7.60003ZM9.8 6.3999C9.68228 6.3999 9.6 6.48218 9.6 6.60003V9.79998C9.6 9.91759 9.68228 9.99999 9.8 9.99999H16V6.39989L9.8 6.3999ZM0 2.25622V12.6C0 13.1539 0.446 13.6 1 13.6H15C15.554 13.6 16 13.1539 16 12.6V10.8H9.8C9.25292 10.8 8.8 10.347 8.8 9.79998V6.60003C8.8 6.05285 9.25292 5.60009 9.8 5.60009H16V3.79998C16 3.24596 15.554 2.79998 15 2.79998L1.0125 2.78753C0.61174 2.7398 0.25452 2.54559 0 2.25628V2.25622ZM1.2 0.400024C0.74988 0.400024 0.4 0.749754 0.4 1.19989C0.4 1.65009 0.74988 2 1.2 2H13.6V0.400024H1.2Z" fill="white"/>
</svg>
